<svg xmlns="http://www.w3.org/2000/svg" viewBox="0 178.681 500 75.099">
  <g id="IF_Logo" transform="matrix(1.231811, 0, 0, 1.231811, -164.377429, -137.984377)" style="">
    <path id="Title" fill="#214EA2" d="M 210.441 287.898 L 215.237 287.898 L 215.237 265.7 L 210.441 265.7 L 210.441 287.898 Z M 229.624 270.428 C 227.363 270.428 225.582 271.284 224.28 272.997 L 224.28 270.77 L 219.69 270.77 L 219.69 287.898 L 224.28 287.898 L 224.28 279.334 C 224.28 278.01 224.634 276.936 225.342 276.114 C 226.05 275.292 226.986 274.881 228.151 274.881 C 229.384 274.881 230.183 275.195 230.549 275.823 C 230.914 276.451 231.097 277.508 231.097 278.992 L 231.097 287.898 L 235.722 287.898 L 235.722 278.478 C 235.722 275.874 235.277 273.882 234.386 272.5 C 233.495 271.119 231.908 270.428 229.624 270.428 Z M 248.328 283.719 C 248.123 283.834 247.831 283.953 247.455 284.079 C 247.078 284.204 246.706 284.267 246.341 284.267 C 245.382 284.267 244.903 283.673 244.903 282.485 L 244.903 274.469 L 249.596 274.469 L 249.596 270.769 L 244.869 270.769 L 244.869 266.624 L 240.279 267.652 L 240.279 270.769 L 237.779 270.769 L 237.779 274.469 L 240.314 274.469 L 240.314 282.348 C 240.314 284.289 240.742 285.756 241.599 286.75 C 242.455 287.743 243.82 288.24 245.693 288.24 C 247.177 288.24 248.582 287.818 249.906 286.972 L 248.604 283.512 L 248.328 283.719 Z M 260.557 270.428 C 258.022 270.428 255.898 271.296 254.185 273.031 C 252.472 274.767 251.616 276.88 251.616 279.368 C 251.616 282.155 252.524 284.33 254.34 285.894 C 256.155 287.458 258.376 288.241 261.003 288.241 C 263.31 288.241 265.467 287.658 267.478 286.494 L 265.765 283.034 C 264.417 283.81 262.853 284.199 261.072 284.199 C 258.514 284.199 256.95 283.103 256.379 280.91 L 268.711 280.91 L 268.848 279.197 C 268.848 276.8 268.037 274.739 266.416 273.014 C 264.793 271.29 262.84 270.428 260.557 270.428 Z M 256.309 277.587 C 256.605 276.606 257.119 275.829 257.851 275.258 C 258.581 274.687 259.393 274.402 260.283 274.402 C 261.31 274.402 262.201 274.688 262.955 275.258 C 263.709 275.828 264.176 276.606 264.359 277.587 L 256.309 277.587 Z M 272.101 287.898 L 276.691 287.898 L 276.691 265.358 L 272.101 265.358 L 272.101 287.898 Z M 280.802 287.898 L 285.392 287.898 L 285.392 265.358 L 280.802 265.358 L 280.802 287.898 Z M 297.587 270.428 C 295.052 270.428 292.928 271.296 291.215 273.031 C 289.502 274.767 288.646 276.88 288.646 279.368 C 288.646 282.155 289.554 284.33 291.37 285.894 C 293.185 287.458 295.406 288.241 298.033 288.241 C 300.34 288.241 302.497 287.658 304.508 286.494 L 302.795 283.034 C 301.447 283.81 299.883 284.199 298.102 284.199 C 295.544 284.199 293.98 283.103 293.409 280.91 L 305.741 280.91 L 305.878 279.197 C 305.878 276.8 305.067 274.739 303.446 273.014 C 301.823 271.29 299.87 270.428 297.587 270.428 Z M 293.339 277.587 C 293.635 276.606 294.149 275.829 294.881 275.258 C 295.611 274.687 296.423 274.402 297.313 274.402 C 298.34 274.402 299.231 274.688 299.985 275.258 C 300.739 275.828 301.206 276.606 301.389 277.587 L 293.339 277.587 Z M 317.661 283.787 C 316.245 283.787 315.103 283.359 314.236 282.502 C 313.368 281.646 312.934 280.59 312.934 279.334 C 312.934 278.055 313.373 276.993 314.253 276.148 C 315.132 275.303 316.223 274.88 317.524 274.88 C 318.917 274.88 319.979 275.2 320.71 275.839 L 323.519 272.516 C 321.806 271.123 319.773 270.427 317.421 270.427 C 314.909 270.427 312.756 271.295 310.964 273.03 C 309.171 274.766 308.275 276.867 308.275 279.333 C 308.275 281.799 309.166 283.901 310.947 285.636 C 312.728 287.372 314.886 288.24 317.421 288.24 C 319.91 288.24 322.057 287.543 323.861 286.15 L 321.361 282.622 C 320.47 283.4 319.236 283.787 317.661 283.787 Z M 335.268 283.719 C 335.063 283.834 334.771 283.953 334.395 284.079 C 334.018 284.204 333.646 284.267 333.281 284.267 C 332.322 284.267 331.843 283.673 331.843 282.485 L 331.843 274.469 L 336.536 274.469 L 336.536 270.769 L 331.809 270.769 L 331.809 266.624 L 327.219 267.652 L 327.219 270.769 L 324.719 270.769 L 324.719 274.469 L 327.254 274.469 L 327.254 282.348 C 327.254 284.289 327.682 285.756 328.539 286.75 C 329.395 287.743 330.76 288.24 332.633 288.24 C 334.117 288.24 335.522 287.818 336.846 286.972 L 335.544 283.512 L 335.268 283.719 Z M 350.511 279.129 C 350.511 282.235 349.279 283.788 346.812 283.788 C 345.647 283.788 344.836 283.452 344.379 282.778 C 343.922 282.105 343.694 281.071 343.694 279.678 L 343.694 270.771 L 339.069 270.771 L 339.069 280.465 C 339.069 281.265 339.126 282.012 339.241 282.709 C 339.355 283.406 339.554 284.103 339.841 284.799 C 340.126 285.496 340.497 286.09 340.954 286.58 C 341.41 287.071 342.016 287.471 342.769 287.779 C 343.523 288.088 344.39 288.242 345.373 288.242 C 347.497 288.242 349.209 287.386 350.511 285.673 L 350.511 287.9 L 355.102 287.9 L 355.102 270.77 L 350.511 270.77 L 350.511 279.129 Z M 371.407 273.031 C 370.105 271.296 368.393 270.428 366.269 270.428 C 363.916 270.428 362.009 271.284 360.548 272.997 C 359.086 274.71 358.356 276.823 358.356 279.334 C 358.356 281.847 359.086 283.959 360.548 285.671 C 362.009 287.384 363.916 288.24 366.269 288.24 C 368.393 288.24 370.105 287.384 371.407 285.671 L 371.407 287.898 L 375.998 287.898 L 375.998 270.77 L 371.407 270.77 L 371.407 273.031 Z M 370.277 282.554 C 369.523 283.376 368.552 283.787 367.365 283.787 C 366.154 283.787 365.167 283.376 364.402 282.554 C 363.636 281.732 363.255 280.658 363.255 279.334 C 363.255 278.01 363.637 276.936 364.402 276.114 C 365.167 275.292 366.154 274.881 367.365 274.881 C 368.553 274.881 369.523 275.292 370.277 276.114 C 371.031 276.936 371.407 278.01 371.407 279.334 C 371.407 280.659 371.031 281.732 370.277 282.554 Z M 380.108 287.898 L 384.698 287.898 L 384.698 265.358 L 380.108 265.358 L 380.108 287.898 Z M 398.742 287.898 L 403.538 287.898 L 403.538 278.409 L 413.609 278.409 L 413.609 274.332 L 403.538 274.332 L 403.538 269.811 L 415.322 269.811 L 415.322 265.7 L 398.742 265.7 L 398.742 287.898 Z M 421.796 273.956 L 421.796 270.77 L 417.206 270.77 L 417.206 287.898 L 421.796 287.898 L 421.796 281.321 C 421.796 279.289 422.287 277.799 423.269 276.851 C 424.251 275.904 425.748 275.429 427.757 275.429 L 427.757 270.428 C 426.067 270.428 424.731 270.793 423.749 271.524 C 422.767 272.255 422.116 273.066 421.796 273.956 Z M 438.513 270.428 C 436 270.428 433.848 271.296 432.055 273.031 C 430.262 274.767 429.367 276.868 429.367 279.334 C 429.367 281.8 430.263 283.902 432.055 285.637 C 433.848 287.373 436 288.241 438.513 288.241 C 441.025 288.241 443.177 287.373 444.97 285.637 C 446.762 283.902 447.658 281.8 447.658 279.334 C 447.658 276.868 446.762 274.767 444.97 273.031 C 443.177 271.296 441.025 270.428 438.513 270.428 Z M 441.681 282.485 C 440.802 283.353 439.745 283.787 438.513 283.787 C 437.28 283.787 436.223 283.353 435.344 282.485 C 434.464 281.617 434.025 280.567 434.025 279.334 C 434.025 278.101 434.464 277.051 435.344 276.183 C 436.223 275.315 437.28 274.881 438.513 274.881 C 439.745 274.881 440.802 275.315 441.681 276.183 C 442.56 277.051 443 278.101 443 279.334 C 443 280.567 442.56 281.618 441.681 282.485 Z M 460.847 270.428 C 458.586 270.428 456.805 271.284 455.503 272.997 L 455.503 270.77 L 450.913 270.77 L 450.913 287.898 L 455.503 287.898 L 455.503 279.334 C 455.503 278.01 455.857 276.936 456.566 276.114 C 457.273 275.292 458.21 274.881 459.375 274.881 C 460.608 274.881 461.407 275.195 461.772 275.823 C 462.137 276.451 462.321 277.508 462.321 278.992 L 462.321 287.898 L 466.945 287.898 L 466.945 278.478 C 466.945 275.874 466.5 273.882 465.609 272.5 C 464.718 271.119 463.13 270.428 460.847 270.428 Z M 479.55 283.719 C 479.344 283.834 479.053 283.953 478.676 284.079 C 478.299 284.205 477.928 284.267 477.563 284.267 C 476.604 284.267 476.125 283.673 476.125 282.485 L 476.125 274.469 L 480.818 274.469 L 480.818 270.769 L 476.09 270.769 L 476.09 266.624 L 471.499 267.652 L 471.499 270.769 L 468.999 270.769 L 468.999 274.469 L 471.534 274.469 L 471.534 282.348 C 471.534 284.289 471.962 285.756 472.818 286.75 C 473.674 287.743 475.039 288.24 476.912 288.24 C 478.396 288.24 479.801 287.818 481.125 286.972 L 479.823 283.512 L 479.55 283.719 Z M 485.991 263.611 C 485.26 263.611 484.626 263.88 484.09 264.416 C 483.553 264.953 483.285 265.598 483.285 266.352 C 483.285 267.083 483.553 267.717 484.09 268.253 C 484.626 268.79 485.26 269.058 485.991 269.058 C 486.745 269.058 487.389 268.79 487.927 268.253 C 488.463 267.716 488.732 267.083 488.732 266.352 C 488.732 265.599 488.463 264.954 487.927 264.416 C 487.389 263.88 486.745 263.611 485.991 263.611 Z M 483.696 287.898 L 488.286 287.898 L 488.286 270.77 L 483.696 270.77 L 483.696 287.898 Z M 500.48 270.428 C 497.945 270.428 495.821 271.296 494.109 273.031 C 492.396 274.767 491.54 276.88 491.54 279.368 C 491.54 282.155 492.447 284.33 494.263 285.894 C 496.079 287.458 498.3 288.241 500.926 288.241 C 503.233 288.241 505.391 287.658 507.401 286.494 L 505.688 283.034 C 504.34 283.81 502.776 284.199 500.995 284.199 C 498.437 284.199 496.873 283.103 496.303 280.91 L 508.635 280.91 L 508.772 279.197 C 508.772 276.8 507.961 274.739 506.339 273.014 C 504.716 271.29 502.763 270.428 500.48 270.428 Z M 496.232 277.587 C 496.529 276.606 497.043 275.829 497.774 275.258 C 498.504 274.687 499.315 274.402 500.206 274.402 C 501.234 274.402 502.125 274.688 502.878 275.258 C 503.632 275.829 504.1 276.606 504.283 277.587 L 496.232 277.587 Z M 516.615 273.956 L 516.615 270.77 L 512.025 270.77 L 512.025 287.898 L 516.615 287.898 L 516.615 281.321 C 516.615 279.289 517.106 277.799 518.088 276.851 C 519.07 275.904 520.567 275.429 522.576 275.429 L 522.576 270.428 C 520.886 270.428 519.55 270.793 518.568 271.524 C 517.586 272.255 516.934 273.066 516.615 273.956 Z M 538.058 280.345 C 537.693 279.694 537.167 279.157 536.483 278.735 C 535.797 278.313 535.101 277.976 534.393 277.725 C 533.685 277.474 532.874 277.257 531.961 277.074 C 530.361 276.754 529.563 276.286 529.563 275.669 C 529.563 275.258 529.774 274.927 530.197 274.676 C 530.619 274.425 531.093 274.299 531.619 274.299 C 533.264 274.299 534.827 274.676 536.311 275.429 L 537.921 272.072 C 535.775 270.976 533.673 270.428 531.618 270.428 C 529.905 270.428 528.369 270.902 527.011 271.849 C 525.652 272.797 524.973 274.093 524.973 275.737 C 524.973 277.29 525.487 278.443 526.514 279.196 C 527.542 279.95 529.026 280.555 530.967 281.012 C 532.999 281.469 534.016 282.028 534.016 282.69 C 534.016 283.261 533.708 283.684 533.091 283.958 C 532.475 284.232 531.812 284.369 531.105 284.369 C 529.392 284.369 527.599 283.741 525.726 282.485 L 524.117 285.842 C 524.436 286.139 524.858 286.447 525.385 286.767 C 525.909 287.087 526.709 287.413 527.782 287.743 C 528.855 288.074 529.963 288.24 531.105 288.24 C 531.949 288.24 532.783 288.142 533.605 287.948 C 534.427 287.754 535.226 287.451 536.003 287.04 C 536.778 286.629 537.407 286.041 537.887 285.276 C 538.366 284.511 538.607 283.627 538.607 282.621 C 538.607 281.755 538.423 280.996 538.058 280.345 Z" style="stroke-width: 1;"></path>
    <path id="IF_Symbol" fill="#214EA2" d="M 180.108 282.714 C 180.108 285.108 182.048 287.048 184.441 287.048 C 186.834 287.048 188.774 285.108 188.774 282.714 C 188.774 280.32 186.834 278.381 184.441 278.381 C 182.048 278.381 180.108 280.32 180.108 282.714 Z M 178.566 273.464 C 178.566 275.558 180.263 277.256 182.358 277.256 C 184.453 277.256 186.15 275.558 186.15 273.464 C 186.15 271.37 184.452 269.672 182.358 269.672 C 180.264 269.672 178.566 271.369 178.566 273.464 Z M 177.211 301.782 C 178.742 301.782 179.982 300.541 179.982 299.011 C 179.982 297.481 178.742 296.239 177.211 296.239 C 175.68 296.239 174.44 297.48 174.44 299.01 C 174.44 300.54 175.68 301.782 177.211 301.782 Z M 186.108 292.256 C 186.108 290.161 184.41 288.464 182.316 288.464 C 180.222 288.464 178.524 290.161 178.524 292.256 C 178.524 294.35 180.221 296.048 182.316 296.048 C 184.411 296.048 186.108 294.35 186.108 292.256 Z M 173.483 302.761 C 173.483 301.783 172.691 300.99 171.712 300.99 C 170.733 300.99 169.941 301.784 169.941 302.761 C 169.941 303.738 170.733 304.532 171.712 304.532 C 172.69 304.532 173.483 303.738 173.483 302.761 Z M 167.279 302.634 C 166.513 302.634 165.893 303.255 165.893 304.021 C 165.893 304.787 166.514 305.408 167.279 305.408 C 168.045 305.408 168.665 304.787 168.665 304.021 C 168.665 303.255 168.045 302.634 167.279 302.634 Z M 177.399 269.595 C 178.93 269.595 180.17 268.354 180.17 266.824 C 180.17 265.294 178.929 264.053 177.399 264.053 C 175.869 264.053 174.628 265.294 174.628 266.824 C 174.628 268.354 175.868 269.595 177.399 269.595 Z M 171.649 264.845 C 172.628 264.845 173.42 264.051 173.42 263.074 C 173.42 262.097 172.628 261.303 171.649 261.303 C 170.67 261.303 169.878 262.097 169.878 263.074 C 169.878 264.051 170.67 264.845 171.649 264.845 Z M 167.279 262.657 C 168.045 262.657 168.665 262.036 168.665 261.27 C 168.665 260.504 168.045 259.883 167.279 259.883 C 166.513 259.883 165.893 260.504 165.893 261.27 C 165.893 262.036 166.514 262.657 167.279 262.657 Z M 156.299 269.748 C 158.692 269.766 160.647 267.84 160.664 265.447 C 160.682 263.054 158.756 261.099 156.363 261.081 C 153.969 261.063 152.015 262.988 151.998 265.382 C 151.98 267.776 153.905 269.73 156.299 269.748 Z M 147.038 271.221 C 149.132 271.237 150.843 269.552 150.859 267.457 C 150.874 265.363 149.189 263.653 147.095 263.637 C 145 263.621 143.29 265.306 143.275 267.401 C 143.259 269.495 144.943 271.205 147.038 271.221 Z M 172.553 275.536 C 174.083 275.547 175.334 274.317 175.345 272.786 C 175.356 271.255 174.125 270.006 172.594 269.994 C 171.064 269.982 169.814 271.214 169.802 272.744 C 169.791 274.276 171.024 275.525 172.553 275.536 Z M 165.829 271.402 C 167.922 271.418 169.633 269.733 169.649 267.639 C 169.665 265.544 167.979 263.834 165.885 263.819 C 163.79 263.803 162.08 265.489 162.065 267.583 C 162.049 269.676 163.734 271.386 165.829 271.402 Z M 176.296 276.522 C 175.318 276.515 174.519 277.301 174.511 278.28 C 174.504 279.259 175.291 280.057 176.269 280.064 C 177.246 280.071 178.046 279.285 178.054 278.306 C 178.062 277.327 177.274 276.529 176.296 276.522 Z M 176.123 282.724 C 176.118 283.49 176.734 284.115 177.499 284.12 C 178.264 284.125 178.89 283.51 178.896 282.744 C 178.901 281.978 178.285 281.353 177.519 281.347 C 176.754 281.342 176.129 281.957 176.123 282.724 Z M 140.368 275.11 C 141.898 275.121 143.149 273.89 143.16 272.36 C 143.172 270.83 141.939 269.58 140.409 269.568 C 138.879 269.557 137.628 270.788 137.617 272.319 C 137.606 273.85 138.838 275.098 140.368 275.11 Z M 136.583 279.832 C 137.561 279.839 138.36 279.053 138.368 278.074 C 138.375 277.095 137.587 276.296 136.609 276.289 C 135.632 276.282 134.832 277.069 134.824 278.047 C 134.817 279.026 135.606 279.824 136.583 279.832 Z M 136.148 282.427 C 136.154 281.66 135.538 281.036 134.772 281.031 C 134.007 281.025 133.381 281.641 133.375 282.406 C 133.37 283.173 133.986 283.797 134.752 283.802 C 135.516 283.809 136.142 283.193 136.148 282.427 Z M 143.183 293.761 C 143.152 291.368 141.189 289.452 138.795 289.482 C 136.402 289.511 134.486 291.476 134.516 293.87 C 134.546 296.264 136.51 298.178 138.903 298.148 C 141.297 298.118 143.212 296.154 143.183 293.761 Z M 144.84 302.991 C 144.814 300.897 143.094 299.22 141.001 299.245 C 138.907 299.272 137.231 300.991 137.256 303.086 C 137.283 305.18 139.001 306.857 141.096 306.829 C 143.189 306.804 144.866 305.085 144.84 302.991 Z M 148.647 277.395 C 148.627 275.865 147.373 274.639 145.841 274.658 C 144.31 274.678 143.086 275.933 143.105 277.464 C 143.124 278.993 144.38 280.22 145.91 280.201 C 147.441 280.182 148.665 278.924 148.647 277.395 Z M 140.808 280.456 C 138.713 280.481 137.037 282.201 137.063 284.294 C 137.089 286.39 138.809 288.065 140.902 288.038 C 142.996 288.013 144.672 286.295 144.646 284.2 C 144.621 282.107 142.902 280.43 140.808 280.456 Z M 149.557 273.633 C 149.569 274.611 150.371 275.395 151.351 275.382 C 152.329 275.37 153.111 274.567 153.099 273.589 C 153.087 272.612 152.285 271.828 151.306 271.84 C 150.327 271.851 149.545 272.655 149.557 273.633 Z M 154.358 272.313 C 154.368 273.079 154.996 273.692 155.761 273.683 C 156.527 273.673 157.14 273.044 157.131 272.279 C 157.121 271.513 156.492 270.901 155.727 270.909 C 154.96 270.918 154.348 271.547 154.358 272.313 Z M 146.055 306.845 C 144.525 306.865 143.299 308.12 143.318 309.652 C 143.337 311.181 144.593 312.408 146.124 312.387 C 147.654 312.37 148.879 311.113 148.86 309.581 C 148.841 308.052 147.585 306.826 146.055 306.845 Z M 151.864 311.523 C 150.885 311.537 150.102 312.339 150.114 313.318 C 150.126 314.296 150.93 315.078 151.907 315.067 C 152.886 315.053 153.669 314.251 153.656 313.274 C 153.645 312.295 152.843 311.511 151.864 311.523 Z M 156.26 313.656 C 155.493 313.665 154.882 314.293 154.89 315.06 C 154.9 315.824 155.527 316.439 156.293 316.427 C 157.06 316.419 157.671 315.79 157.662 315.023 C 157.654 314.259 157.026 313.646 156.26 313.656 Z M 167.237 306.566 C 164.844 306.545 162.886 308.464 162.863 310.859 C 162.84 313.251 164.761 315.21 167.155 315.233 C 169.548 315.256 171.506 313.335 171.53 310.942 C 171.552 308.547 169.631 306.589 167.237 306.566 Z M 176.503 305.112 C 174.409 305.092 172.695 306.774 172.674 308.868 C 172.654 310.962 174.336 312.676 176.431 312.696 C 178.525 312.716 180.239 311.034 180.258 308.94 C 180.278 306.847 178.597 305.132 176.503 305.112 Z M 150.996 300.743 C 149.466 300.728 148.212 301.956 148.198 303.487 C 148.184 305.018 149.412 306.27 150.943 306.284 C 152.472 306.3 153.726 305.071 153.742 303.54 C 153.756 302.01 152.526 300.758 150.996 300.743 Z M 157.712 304.892 C 155.618 304.871 153.904 306.552 153.884 308.647 C 153.863 310.742 155.546 312.456 157.639 312.475 C 159.734 312.496 161.448 310.813 161.467 308.72 C 161.487 306.626 159.807 304.911 157.712 304.892 Z M 147.255 299.749 C 148.233 299.759 149.034 298.974 149.043 297.994 C 149.052 297.016 148.266 296.216 147.289 296.207 C 146.312 296.197 145.51 296.982 145.5 297.961 C 145.491 298.941 146.278 299.739 147.255 299.749 Z M 146.042 294.921 C 146.807 294.929 147.435 294.314 147.442 293.548 C 147.448 292.782 146.834 292.155 146.068 292.148 C 145.302 292.141 144.676 292.757 144.668 293.523 C 144.66 294.288 145.276 294.913 146.042 294.921 Z M 183.179 301.239 C 181.65 301.223 180.397 302.452 180.382 303.983 C 180.368 305.512 181.596 306.766 183.128 306.78 C 184.657 306.796 185.911 305.566 185.925 304.036 C 185.941 302.505 184.711 301.253 183.179 301.239 Z M 186.977 296.525 C 185.998 296.515 185.197 297.3 185.187 298.279 C 185.179 299.258 185.964 300.058 186.943 300.068 C 187.921 300.078 188.721 299.291 188.731 298.314 C 188.738 297.333 187.953 296.534 186.977 296.525 Z M 188.815 292.558 C 188.05 292.55 187.423 293.165 187.417 293.93 C 187.409 294.697 188.023 295.322 188.791 295.33 C 189.555 295.337 190.184 294.724 190.188 293.957 C 190.197 293.191 189.583 292.566 188.815 292.558 Z" style="stroke-width: 1;"></path>
  </g>
  <text style="fill: rgb(96, 96, 96); font-family: Arial, sans-serif; font-size: 14px; letter-spacing: 1px; white-space: pre;" x="93.796" y="239.208">PROTECT INNOVATION AT MACHINE SPEED</text>
</svg>