<?xml version="1.0" encoding="utf-8"?>
<svg xmlns="http://www.w3.org/2000/svg" viewBox="0 205.217 500 82.34" xmlns:bx="https://boxy-svg.com" width="500px" height="82.34px"><defs><bx:export><bx:file format="svg" excluded="true"/><bx:file format="svg" path="Untitled 2.svg"/></bx:export></defs><g id="IF_Logo" transform="matrix(1.231811, 0, 0, 1.231811, -164.279177, -107.365755)" style=""><path id="tagline" fill="#676767" d="M 211.353 306.611 L 212.361 306.611 L 212.361 298.211 L 211.353 298.211 L 211.353 306.611 Z M 220.725 304.943 L 216.249 298.211 L 215.241 298.211 L 215.241 306.611 L 216.249 306.611 L 216.249 299.879 L 220.725 306.611 L 221.733 306.611 L 221.733 298.211 L 220.725 298.211 L 220.725 304.943 Z M 224.074 299.039 L 226.582 299.039 L 226.582 306.611 L 227.59 306.611 L 227.59 299.039 L 230.098 299.039 L 230.098 298.211 L 224.074 298.211 L 224.074 299.039 Z M 232.425 306.611 L 237.621 306.611 L 237.621 305.783 L 233.433 305.783 L 233.433 302.783 L 237.261 302.783 L 237.261 301.967 L 233.433 301.967 L 233.433 299.039 L 237.621 299.039 L 237.621 298.211 L 232.425 298.211 L 232.425 306.611 Z M 241.293 298.211 L 240.285 298.211 L 240.285 306.611 L 245.205 306.611 L 245.205 305.806 L 241.293 305.806 L 241.293 298.211 Z M 248.697 298.211 L 247.689 298.211 L 247.689 306.611 L 252.609 306.611 L 252.609 305.806 L 248.697 305.806 L 248.697 298.211 Z M 255.094 306.611 L 260.289 306.611 L 260.289 305.783 L 256.101 305.783 L 256.101 302.783 L 259.929 302.783 L 259.929 301.967 L 256.101 301.967 L 256.101 299.039 L 260.289 299.039 L 260.289 298.211 L 255.094 298.211 L 255.094 306.611 Z M 265.047 299.369 C 265.492 299.094 266.01 298.955 266.602 298.955 C 267.274 298.955 267.805 299.113 268.198 299.43 C 268.591 299.747 268.85 300.164 268.977 300.684 L 270.094 300.684 C 269.926 299.852 269.541 299.207 268.942 298.752 C 268.342 298.295 267.561 298.067 266.602 298.067 C 265.786 298.067 265.079 298.25 264.483 298.613 C 263.887 298.977 263.43 299.485 263.11 300.136 C 262.79 300.788 262.63 301.546 262.63 302.41 C 262.63 303.274 262.79 304.032 263.11 304.684 C 263.43 305.336 263.887 305.844 264.483 306.207 C 265.079 306.571 265.786 306.754 266.602 306.754 C 267.561 306.754 268.342 306.525 268.942 306.069 C 269.542 305.613 269.926 304.981 270.094 304.173 L 268.977 304.173 C 268.85 304.685 268.59 305.095 268.198 305.402 C 267.806 305.709 267.274 305.864 266.602 305.864 C 266.01 305.864 265.493 305.726 265.047 305.45 C 264.604 305.175 264.262 304.778 264.022 304.262 C 263.782 303.746 263.663 303.127 263.663 302.408 C 263.663 301.689 263.782 301.07 264.022 300.554 C 264.262 300.041 264.603 299.645 265.047 299.369 Z M 271.892 299.039 L 274.4 299.039 L 274.4 306.611 L 275.408 306.611 L 275.408 299.039 L 277.916 299.039 L 277.916 298.211 L 271.893 298.211 L 271.893 299.039 L 271.892 299.039 Z M 285.392 303.527 C 285.392 304.071 285.304 304.515 285.128 304.859 C 284.952 305.203 284.708 305.455 284.396 305.615 C 284.085 305.775 283.716 305.855 283.292 305.855 C 282.876 305.855 282.509 305.775 282.188 305.615 C 281.867 305.455 281.618 305.203 281.438 304.859 C 281.258 304.515 281.168 304.071 281.168 303.527 L 281.168 298.211 L 280.16 298.211 L 280.16 303.516 C 280.16 304.26 280.299 304.87 280.58 305.346 C 280.859 305.822 281.232 306.176 281.701 306.408 C 282.17 306.64 282.691 306.757 283.267 306.757 C 283.851 306.757 284.378 306.64 284.851 306.408 C 285.322 306.177 285.699 305.822 285.978 305.346 C 286.259 304.869 286.398 304.26 286.398 303.516 L 286.398 298.211 L 285.39 298.211 L 285.39 303.527 L 285.392 303.527 Z M 291.392 298.211 L 288.296 306.611 L 289.353 306.611 L 290.13 304.451 L 293.703 304.451 L 294.476 306.611 L 295.544 306.611 L 292.46 298.211 L 291.392 298.211 Z M 290.424 303.634 L 291.922 299.47 L 293.412 303.634 L 290.424 303.634 Z M 298.892 298.211 L 297.884 298.211 L 297.884 306.611 L 302.804 306.611 L 302.804 305.806 L 298.892 305.806 L 298.892 298.211 Z M 313.935 298.541 C 313.505 298.321 312.964 298.211 312.308 298.211 L 309.56 298.211 L 309.56 306.611 L 310.568 306.611 L 310.568 303.143 L 312.308 303.143 C 312.972 303.143 313.515 303.033 313.941 302.813 C 314.365 302.593 314.677 302.296 314.882 301.925 C 315.085 301.552 315.189 301.138 315.189 300.683 C 315.189 300.21 315.085 299.79 314.882 299.423 C 314.678 299.055 314.363 298.761 313.935 298.541 Z M 313.724 301.853 C 313.437 302.145 312.956 302.291 312.285 302.291 L 310.568 302.291 L 310.568 299.051 L 312.285 299.051 C 312.957 299.051 313.437 299.194 313.724 299.478 C 314.011 299.762 314.156 300.165 314.156 300.684 C 314.156 301.172 314.012 301.561 313.724 301.853 Z M 321.896 302.806 C 322.32 302.583 322.634 302.283 322.837 301.907 C 323.042 301.531 323.144 301.119 323.144 300.672 C 323.144 300.207 323.044 299.791 322.843 299.424 C 322.644 299.056 322.335 298.762 321.919 298.541 C 321.503 298.321 320.968 298.211 320.312 298.211 L 317.601 298.211 L 317.601 306.611 L 318.609 306.611 L 318.609 303.143 L 320.265 303.143 C 320.289 303.143 320.307 303.137 320.331 303.137 L 322.041 306.611 L 323.229 306.611 L 321.386 302.984 C 321.564 302.933 321.747 302.885 321.896 302.806 Z M 320.24 302.351 L 318.609 302.351 L 318.609 299.063 L 320.228 299.063 C 320.892 299.063 321.371 299.209 321.662 299.501 C 321.955 299.792 322.101 300.187 322.101 300.683 C 322.101 301.171 321.951 301.571 321.65 301.882 C 321.351 302.195 320.881 302.351 320.24 302.351 Z M 331.707 298.619 C 331.094 298.252 330.377 298.067 329.553 298.067 C 328.744 298.067 328.035 298.252 327.422 298.619 C 326.811 298.987 326.334 299.498 325.994 300.149 C 325.654 300.8 325.484 301.554 325.484 302.411 C 325.484 303.275 325.654 304.033 325.994 304.685 C 326.334 305.337 326.81 305.845 327.422 306.208 C 328.035 306.572 328.744 306.755 329.553 306.755 C 330.377 306.755 331.094 306.572 331.707 306.208 C 332.318 305.845 332.793 305.337 333.129 304.685 C 333.465 304.033 333.633 303.275 333.633 302.411 C 333.633 301.555 333.465 300.801 333.129 300.149 C 332.793 299.497 332.318 298.987 331.707 298.619 Z M 332.222 304.265 C 331.97 304.781 331.615 305.177 331.154 305.453 C 330.695 305.729 330.16 305.867 329.552 305.867 C 328.952 305.867 328.421 305.729 327.962 305.453 C 327.501 305.178 327.146 304.781 326.894 304.265 C 326.642 303.749 326.517 303.13 326.517 302.411 C 326.517 301.692 326.642 301.073 326.894 300.557 C 327.146 300.041 327.501 299.648 327.962 299.375 C 328.421 299.104 328.952 298.967 329.552 298.967 C 330.159 298.967 330.695 299.104 331.154 299.375 C 331.615 299.647 331.97 300.041 332.222 300.557 C 332.474 301.074 332.601 301.692 332.601 302.411 C 332.601 303.13 332.474 303.75 332.222 304.265 Z M 340.562 298.541 C 340.134 298.321 339.591 298.211 338.937 298.211 L 336.189 298.211 L 336.189 306.611 L 337.197 306.611 L 337.197 303.143 L 338.937 303.143 C 339.599 303.143 340.144 303.033 340.568 302.813 C 340.992 302.593 341.306 302.296 341.509 301.925 C 341.714 301.552 341.816 301.138 341.816 300.683 C 341.816 300.21 341.714 299.79 341.509 299.423 C 341.306 299.055 340.99 298.761 340.562 298.541 Z M 340.353 301.853 C 340.064 302.145 339.583 302.291 338.912 302.291 L 337.197 302.291 L 337.197 299.051 L 338.912 299.051 C 339.584 299.051 340.064 299.194 340.353 299.478 C 340.64 299.762 340.785 300.165 340.785 300.684 C 340.785 301.172 340.64 301.561 340.353 301.853 Z M 344.228 306.611 L 349.423 306.611 L 349.423 305.783 L 345.235 305.783 L 345.235 302.783 L 349.063 302.783 L 349.063 301.967 L 345.235 301.967 L 345.235 299.039 L 349.423 299.039 L 349.423 298.211 L 344.228 298.211 L 344.228 306.611 Z M 356.385 302.806 C 356.809 302.583 357.121 302.283 357.326 301.907 C 357.529 301.531 357.633 301.119 357.633 300.672 C 357.633 300.207 357.531 299.791 357.332 299.424 C 357.133 299.056 356.824 298.762 356.408 298.541 C 355.992 298.321 355.455 298.211 354.801 298.211 L 352.088 298.211 L 352.088 306.611 L 353.096 306.611 L 353.096 303.143 L 354.752 303.143 C 354.776 303.143 354.794 303.137 354.818 303.137 L 356.527 306.611 L 357.716 306.611 L 355.873 302.984 C 356.053 302.932 356.235 302.885 356.385 302.806 Z M 354.728 302.351 L 353.095 302.351 L 353.095 299.063 L 354.716 299.063 C 355.38 299.063 355.857 299.209 356.15 299.501 C 356.441 299.792 356.588 300.187 356.588 300.683 C 356.588 301.171 356.438 301.571 356.139 301.882 C 355.838 302.195 355.367 302.351 354.728 302.351 Z M 359.756 299.039 L 362.264 299.039 L 362.264 306.611 L 363.272 306.611 L 363.272 299.039 L 365.78 299.039 L 365.78 298.211 L 359.757 298.211 L 359.757 299.039 L 359.756 299.039 Z M 370.693 302.456 L 368.588 298.211 L 367.447 298.211 L 370.183 303.42 L 370.183 306.611 L 371.191 306.611 L 371.191 303.42 L 373.916 298.211 L 372.787 298.211 L 370.693 302.456 Z M 385.783 301.92 L 381.428 301.92 L 381.428 298.211 L 380.42 298.211 L 380.42 306.611 L 381.428 306.611 L 381.428 302.748 L 385.783 302.748 L 385.783 306.611 L 386.791 306.611 L 386.791 298.211 L 385.783 298.211 L 385.783 301.92 Z M 395.568 298.619 C 394.957 298.252 394.238 298.067 393.414 298.067 C 392.607 298.067 391.896 298.252 391.285 298.619 C 390.674 298.987 390.197 299.498 389.857 300.149 C 389.517 300.8 389.347 301.554 389.347 302.411 C 389.347 303.275 389.517 304.033 389.857 304.685 C 390.197 305.337 390.673 305.845 391.285 306.208 C 391.896 306.572 392.607 306.755 393.414 306.755 C 394.238 306.755 394.957 306.572 395.568 306.208 C 396.181 305.845 396.654 305.337 396.99 304.685 C 397.326 304.033 397.494 303.275 397.494 302.411 C 397.494 301.555 397.326 300.801 396.99 300.149 C 396.654 299.497 396.181 298.987 395.568 298.619 Z M 396.086 304.265 C 395.832 304.781 395.477 305.177 395.018 305.453 C 394.557 305.729 394.024 305.867 393.414 305.867 C 392.814 305.867 392.285 305.729 391.824 305.453 C 391.365 305.178 391.01 304.781 390.758 304.265 C 390.506 303.749 390.379 303.13 390.379 302.411 C 390.379 301.692 390.506 301.073 390.758 300.557 C 391.01 300.041 391.365 299.648 391.824 299.375 C 392.285 299.104 392.814 298.967 393.414 298.967 C 394.023 298.967 394.557 299.104 395.018 299.375 C 395.477 299.647 395.832 300.041 396.086 300.557 C 396.338 301.074 396.463 301.692 396.463 302.411 C 396.463 303.13 396.338 303.75 396.086 304.265 Z M 401.058 298.211 L 400.05 298.211 L 400.05 306.611 L 404.97 306.611 L 404.97 305.806 L 401.058 305.806 L 401.058 298.211 Z M 412.363 298.72 C 411.722 298.38 410.912 298.21 409.927 298.21 L 407.454 298.21 L 407.454 306.611 L 409.927 306.611 C 410.911 306.611 411.722 306.443 412.363 306.107 C 413.004 305.771 413.476 305.291 413.785 304.668 C 414.094 304.043 414.248 303.299 414.248 302.436 C 414.248 301.555 414.094 300.801 413.785 300.174 C 413.476 299.545 413.004 299.061 412.363 298.72 Z M 412.89 304.216 C 412.683 304.716 412.337 305.101 411.853 305.368 C 411.369 305.637 410.718 305.77 409.902 305.77 L 408.463 305.77 L 408.463 299.049 L 409.902 299.049 C 410.718 299.049 411.369 299.186 411.853 299.457 C 412.337 299.729 412.683 300.117 412.89 300.621 C 413.099 301.125 413.203 301.729 413.203 302.434 C 413.203 303.123 413.099 303.716 412.89 304.216 Z M 416.791 306.611 L 417.799 306.611 L 417.799 298.211 L 416.791 298.211 L 416.791 306.611 Z M 426.162 304.943 L 421.687 298.211 L 420.679 298.211 L 420.679 306.611 L 421.687 306.611 L 421.687 299.879 L 426.162 306.611 L 427.17 306.611 L 427.17 298.211 L 426.162 298.211 L 426.162 304.943 Z M 434.082 302.916 L 436.508 302.916 C 436.444 303.819 436.184 304.535 435.727 305.063 C 435.272 305.591 434.596 305.855 433.7 305.855 C 433.124 305.855 432.614 305.718 432.169 305.447 C 431.726 305.176 431.38 304.781 431.132 304.265 C 430.884 303.749 430.761 303.134 430.761 302.423 C 430.761 301.71 430.884 301.099 431.132 300.587 C 431.38 300.075 431.734 299.681 432.195 299.404 C 432.654 299.128 433.193 298.99 433.808 298.99 C 434.472 298.99 435.013 299.138 435.429 299.434 C 435.843 299.73 436.109 300.129 436.22 300.633 L 437.384 300.633 C 437.208 299.825 436.804 299.195 436.171 298.743 C 435.54 298.291 434.751 298.065 433.808 298.065 C 432.976 298.065 432.253 298.25 431.642 298.617 C 431.031 298.985 430.558 299.498 430.226 300.153 C 429.894 300.809 429.728 301.565 429.728 302.422 C 429.728 303.285 429.892 304.041 430.22 304.69 C 430.548 305.339 431.007 305.844 431.601 306.208 C 432.193 306.572 432.88 306.755 433.664 306.755 C 434.152 306.755 434.572 306.696 434.926 306.581 C 435.278 306.464 435.582 306.292 435.844 306.064 C 436.104 305.836 436.332 305.558 436.533 305.23 L 436.617 306.61 L 437.541 306.61 L 437.541 302.122 L 434.084 302.122 L 434.084 302.916 L 434.082 302.916 Z M 445.465 303.252 C 445.285 302.947 445.037 302.697 444.721 302.502 C 444.405 302.305 444.043 302.14 443.635 302.004 C 443.276 301.883 442.947 301.775 442.651 301.68 C 442.356 301.584 442.096 301.478 441.878 301.362 C 441.657 301.247 441.489 301.104 441.374 300.936 C 441.257 300.768 441.2 300.547 441.2 300.276 C 441.2 299.988 441.266 299.744 441.397 299.544 C 441.53 299.345 441.713 299.19 441.95 299.083 C 442.184 298.974 442.456 298.925 442.759 298.933 C 443.128 298.933 443.433 299.007 443.677 299.155 C 443.921 299.303 444.105 299.489 444.224 299.713 C 444.343 299.938 444.404 300.166 444.404 300.398 L 445.461 300.398 C 445.461 299.942 445.348 299.54 445.125 299.192 C 444.9 298.844 444.59 298.57 444.195 298.37 C 443.799 298.171 443.332 298.07 442.797 298.07 C 442.252 298.07 441.783 298.169 441.387 298.364 C 440.991 298.56 440.686 298.831 440.475 299.175 C 440.262 299.519 440.157 299.919 440.157 300.374 C 440.157 300.91 440.313 301.345 440.626 301.677 C 440.939 302.009 441.425 302.286 442.089 302.511 C 442.433 302.63 442.763 302.74 443.079 302.841 C 443.395 302.941 443.673 303.054 443.913 303.183 C 444.153 303.311 444.343 303.476 444.483 303.681 C 444.624 303.884 444.694 304.151 444.694 304.478 C 444.694 304.751 444.624 304.995 444.483 305.21 C 444.342 305.427 444.139 305.597 443.872 305.72 C 443.602 305.845 443.282 305.907 442.905 305.907 C 442.473 305.907 442.112 305.825 441.819 305.661 C 441.528 305.498 441.305 305.277 441.153 305.002 C 441.001 304.725 440.924 304.424 440.924 304.096 L 439.869 304.096 C 439.869 304.623 439.992 305.088 440.24 305.488 C 440.488 305.888 440.84 306.2 441.297 306.425 C 441.752 306.648 442.289 306.761 442.904 306.761 C 443.537 306.761 444.06 306.648 444.476 306.425 C 444.892 306.2 445.206 305.91 445.417 305.554 C 445.63 305.199 445.735 304.821 445.735 304.421 C 445.734 303.943 445.644 303.555 445.465 303.252 Z" style="stroke-width: 1;"/><path id="Title" fill="#214EA2" d="M 210.441 287.898 L 215.237 287.898 L 215.237 265.7 L 210.441 265.7 L 210.441 287.898 Z M 229.624 270.428 C 227.363 270.428 225.582 271.284 224.28 272.997 L 224.28 270.77 L 219.69 270.77 L 219.69 287.898 L 224.28 287.898 L 224.28 279.334 C 224.28 278.01 224.634 276.936 225.342 276.114 C 226.05 275.292 226.986 274.881 228.151 274.881 C 229.384 274.881 230.183 275.195 230.549 275.823 C 230.914 276.451 231.097 277.508 231.097 278.992 L 231.097 287.898 L 235.722 287.898 L 235.722 278.478 C 235.722 275.874 235.277 273.882 234.386 272.5 C 233.495 271.119 231.908 270.428 229.624 270.428 Z M 248.328 283.719 C 248.123 283.834 247.831 283.953 247.455 284.079 C 247.078 284.204 246.706 284.267 246.341 284.267 C 245.382 284.267 244.903 283.673 244.903 282.485 L 244.903 274.469 L 249.596 274.469 L 249.596 270.769 L 244.869 270.769 L 244.869 266.624 L 240.279 267.652 L 240.279 270.769 L 237.779 270.769 L 237.779 274.469 L 240.314 274.469 L 240.314 282.348 C 240.314 284.289 240.742 285.756 241.599 286.75 C 242.455 287.743 243.82 288.24 245.693 288.24 C 247.177 288.24 248.582 287.818 249.906 286.972 L 248.604 283.512 L 248.328 283.719 Z M 260.557 270.428 C 258.022 270.428 255.898 271.296 254.185 273.031 C 252.472 274.767 251.616 276.88 251.616 279.368 C 251.616 282.155 252.524 284.33 254.34 285.894 C 256.155 287.458 258.376 288.241 261.003 288.241 C 263.31 288.241 265.467 287.658 267.478 286.494 L 265.765 283.034 C 264.417 283.81 262.853 284.199 261.072 284.199 C 258.514 284.199 256.95 283.103 256.379 280.91 L 268.711 280.91 L 268.848 279.197 C 268.848 276.8 268.037 274.739 266.416 273.014 C 264.793 271.29 262.84 270.428 260.557 270.428 Z M 256.309 277.587 C 256.605 276.606 257.119 275.829 257.851 275.258 C 258.581 274.687 259.393 274.402 260.283 274.402 C 261.31 274.402 262.201 274.688 262.955 275.258 C 263.709 275.828 264.176 276.606 264.359 277.587 L 256.309 277.587 Z M 272.101 287.898 L 276.691 287.898 L 276.691 265.358 L 272.101 265.358 L 272.101 287.898 Z M 280.802 287.898 L 285.392 287.898 L 285.392 265.358 L 280.802 265.358 L 280.802 287.898 Z M 297.587 270.428 C 295.052 270.428 292.928 271.296 291.215 273.031 C 289.502 274.767 288.646 276.88 288.646 279.368 C 288.646 282.155 289.554 284.33 291.37 285.894 C 293.185 287.458 295.406 288.241 298.033 288.241 C 300.34 288.241 302.497 287.658 304.508 286.494 L 302.795 283.034 C 301.447 283.81 299.883 284.199 298.102 284.199 C 295.544 284.199 293.98 283.103 293.409 280.91 L 305.741 280.91 L 305.878 279.197 C 305.878 276.8 305.067 274.739 303.446 273.014 C 301.823 271.29 299.87 270.428 297.587 270.428 Z M 293.339 277.587 C 293.635 276.606 294.149 275.829 294.881 275.258 C 295.611 274.687 296.423 274.402 297.313 274.402 C 298.34 274.402 299.231 274.688 299.985 275.258 C 300.739 275.828 301.206 276.606 301.389 277.587 L 293.339 277.587 Z M 317.661 283.787 C 316.245 283.787 315.103 283.359 314.236 282.502 C 313.368 281.646 312.934 280.59 312.934 279.334 C 312.934 278.055 313.373 276.993 314.253 276.148 C 315.132 275.303 316.223 274.88 317.524 274.88 C 318.917 274.88 319.979 275.2 320.71 275.839 L 323.519 272.516 C 321.806 271.123 319.773 270.427 317.421 270.427 C 314.909 270.427 312.756 271.295 310.964 273.03 C 309.171 274.766 308.275 276.867 308.275 279.333 C 308.275 281.799 309.166 283.901 310.947 285.636 C 312.728 287.372 314.886 288.24 317.421 288.24 C 319.91 288.24 322.057 287.543 323.861 286.15 L 321.361 282.622 C 320.47 283.4 319.236 283.787 317.661 283.787 Z M 335.268 283.719 C 335.063 283.834 334.771 283.953 334.395 284.079 C 334.018 284.204 333.646 284.267 333.281 284.267 C 332.322 284.267 331.843 283.673 331.843 282.485 L 331.843 274.469 L 336.536 274.469 L 336.536 270.769 L 331.809 270.769 L 331.809 266.624 L 327.219 267.652 L 327.219 270.769 L 324.719 270.769 L 324.719 274.469 L 327.254 274.469 L 327.254 282.348 C 327.254 284.289 327.682 285.756 328.539 286.75 C 329.395 287.743 330.76 288.24 332.633 288.24 C 334.117 288.24 335.522 287.818 336.846 286.972 L 335.544 283.512 L 335.268 283.719 Z M 350.511 279.129 C 350.511 282.235 349.279 283.788 346.812 283.788 C 345.647 283.788 344.836 283.452 344.379 282.778 C 343.922 282.105 343.694 281.071 343.694 279.678 L 343.694 270.771 L 339.069 270.771 L 339.069 280.465 C 339.069 281.265 339.126 282.012 339.241 282.709 C 339.355 283.406 339.554 284.103 339.841 284.799 C 340.126 285.496 340.497 286.09 340.954 286.58 C 341.41 287.071 342.016 287.471 342.769 287.779 C 343.523 288.088 344.39 288.242 345.373 288.242 C 347.497 288.242 349.209 287.386 350.511 285.673 L 350.511 287.9 L 355.102 287.9 L 355.102 270.77 L 350.511 270.77 L 350.511 279.129 Z M 371.407 273.031 C 370.105 271.296 368.393 270.428 366.269 270.428 C 363.916 270.428 362.009 271.284 360.548 272.997 C 359.086 274.71 358.356 276.823 358.356 279.334 C 358.356 281.847 359.086 283.959 360.548 285.671 C 362.009 287.384 363.916 288.24 366.269 288.24 C 368.393 288.24 370.105 287.384 371.407 285.671 L 371.407 287.898 L 375.998 287.898 L 375.998 270.77 L 371.407 270.77 L 371.407 273.031 Z M 370.277 282.554 C 369.523 283.376 368.552 283.787 367.365 283.787 C 366.154 283.787 365.167 283.376 364.402 282.554 C 363.636 281.732 363.255 280.658 363.255 279.334 C 363.255 278.01 363.637 276.936 364.402 276.114 C 365.167 275.292 366.154 274.881 367.365 274.881 C 368.553 274.881 369.523 275.292 370.277 276.114 C 371.031 276.936 371.407 278.01 371.407 279.334 C 371.407 280.659 371.031 281.732 370.277 282.554 Z M 380.108 287.898 L 384.698 287.898 L 384.698 265.358 L 380.108 265.358 L 380.108 287.898 Z M 398.742 287.898 L 403.538 287.898 L 403.538 278.409 L 413.609 278.409 L 413.609 274.332 L 403.538 274.332 L 403.538 269.811 L 415.322 269.811 L 415.322 265.7 L 398.742 265.7 L 398.742 287.898 Z M 421.796 273.956 L 421.796 270.77 L 417.206 270.77 L 417.206 287.898 L 421.796 287.898 L 421.796 281.321 C 421.796 279.289 422.287 277.799 423.269 276.851 C 424.251 275.904 425.748 275.429 427.757 275.429 L 427.757 270.428 C 426.067 270.428 424.731 270.793 423.749 271.524 C 422.767 272.255 422.116 273.066 421.796 273.956 Z M 438.513 270.428 C 436 270.428 433.848 271.296 432.055 273.031 C 430.262 274.767 429.367 276.868 429.367 279.334 C 429.367 281.8 430.263 283.902 432.055 285.637 C 433.848 287.373 436 288.241 438.513 288.241 C 441.025 288.241 443.177 287.373 444.97 285.637 C 446.762 283.902 447.658 281.8 447.658 279.334 C 447.658 276.868 446.762 274.767 444.97 273.031 C 443.177 271.296 441.025 270.428 438.513 270.428 Z M 441.681 282.485 C 440.802 283.353 439.745 283.787 438.513 283.787 C 437.28 283.787 436.223 283.353 435.344 282.485 C 434.464 281.617 434.025 280.567 434.025 279.334 C 434.025 278.101 434.464 277.051 435.344 276.183 C 436.223 275.315 437.28 274.881 438.513 274.881 C 439.745 274.881 440.802 275.315 441.681 276.183 C 442.56 277.051 443 278.101 443 279.334 C 443 280.567 442.56 281.618 441.681 282.485 Z M 460.847 270.428 C 458.586 270.428 456.805 271.284 455.503 272.997 L 455.503 270.77 L 450.913 270.77 L 450.913 287.898 L 455.503 287.898 L 455.503 279.334 C 455.503 278.01 455.857 276.936 456.566 276.114 C 457.273 275.292 458.21 274.881 459.375 274.881 C 460.608 274.881 461.407 275.195 461.772 275.823 C 462.137 276.451 462.321 277.508 462.321 278.992 L 462.321 287.898 L 466.945 287.898 L 466.945 278.478 C 466.945 275.874 466.5 273.882 465.609 272.5 C 464.718 271.119 463.13 270.428 460.847 270.428 Z M 479.55 283.719 C 479.344 283.834 479.053 283.953 478.676 284.079 C 478.299 284.205 477.928 284.267 477.563 284.267 C 476.604 284.267 476.125 283.673 476.125 282.485 L 476.125 274.469 L 480.818 274.469 L 480.818 270.769 L 476.09 270.769 L 476.09 266.624 L 471.499 267.652 L 471.499 270.769 L 468.999 270.769 L 468.999 274.469 L 471.534 274.469 L 471.534 282.348 C 471.534 284.289 471.962 285.756 472.818 286.75 C 473.674 287.743 475.039 288.24 476.912 288.24 C 478.396 288.24 479.801 287.818 481.125 286.972 L 479.823 283.512 L 479.55 283.719 Z M 485.991 263.611 C 485.26 263.611 484.626 263.88 484.09 264.416 C 483.553 264.953 483.285 265.598 483.285 266.352 C 483.285 267.083 483.553 267.717 484.09 268.253 C 484.626 268.79 485.26 269.058 485.991 269.058 C 486.745 269.058 487.389 268.79 487.927 268.253 C 488.463 267.716 488.732 267.083 488.732 266.352 C 488.732 265.599 488.463 264.954 487.927 264.416 C 487.389 263.88 486.745 263.611 485.991 263.611 Z M 483.696 287.898 L 488.286 287.898 L 488.286 270.77 L 483.696 270.77 L 483.696 287.898 Z M 500.48 270.428 C 497.945 270.428 495.821 271.296 494.109 273.031 C 492.396 274.767 491.54 276.88 491.54 279.368 C 491.54 282.155 492.447 284.33 494.263 285.894 C 496.079 287.458 498.3 288.241 500.926 288.241 C 503.233 288.241 505.391 287.658 507.401 286.494 L 505.688 283.034 C 504.34 283.81 502.776 284.199 500.995 284.199 C 498.437 284.199 496.873 283.103 496.303 280.91 L 508.635 280.91 L 508.772 279.197 C 508.772 276.8 507.961 274.739 506.339 273.014 C 504.716 271.29 502.763 270.428 500.48 270.428 Z M 496.232 277.587 C 496.529 276.606 497.043 275.829 497.774 275.258 C 498.504 274.687 499.315 274.402 500.206 274.402 C 501.234 274.402 502.125 274.688 502.878 275.258 C 503.632 275.829 504.1 276.606 504.283 277.587 L 496.232 277.587 Z M 516.615 273.956 L 516.615 270.77 L 512.025 270.77 L 512.025 287.898 L 516.615 287.898 L 516.615 281.321 C 516.615 279.289 517.106 277.799 518.088 276.851 C 519.07 275.904 520.567 275.429 522.576 275.429 L 522.576 270.428 C 520.886 270.428 519.55 270.793 518.568 271.524 C 517.586 272.255 516.934 273.066 516.615 273.956 Z M 538.058 280.345 C 537.693 279.694 537.167 279.157 536.483 278.735 C 535.797 278.313 535.101 277.976 534.393 277.725 C 533.685 277.474 532.874 277.257 531.961 277.074 C 530.361 276.754 529.563 276.286 529.563 275.669 C 529.563 275.258 529.774 274.927 530.197 274.676 C 530.619 274.425 531.093 274.299 531.619 274.299 C 533.264 274.299 534.827 274.676 536.311 275.429 L 537.921 272.072 C 535.775 270.976 533.673 270.428 531.618 270.428 C 529.905 270.428 528.369 270.902 527.011 271.849 C 525.652 272.797 524.973 274.093 524.973 275.737 C 524.973 277.29 525.487 278.443 526.514 279.196 C 527.542 279.95 529.026 280.555 530.967 281.012 C 532.999 281.469 534.016 282.028 534.016 282.69 C 534.016 283.261 533.708 283.684 533.091 283.958 C 532.475 284.232 531.812 284.369 531.105 284.369 C 529.392 284.369 527.599 283.741 525.726 282.485 L 524.117 285.842 C 524.436 286.139 524.858 286.447 525.385 286.767 C 525.909 287.087 526.709 287.413 527.782 287.743 C 528.855 288.074 529.963 288.24 531.105 288.24 C 531.949 288.24 532.783 288.142 533.605 287.948 C 534.427 287.754 535.226 287.451 536.003 287.04 C 536.778 286.629 537.407 286.041 537.887 285.276 C 538.366 284.511 538.607 283.627 538.607 282.621 C 538.607 281.755 538.423 280.996 538.058 280.345 Z" style="stroke-width: 1;"/><path id="IF_Symbol" fill="#214EA2" d="M 180.108 282.714 C 180.108 285.108 182.048 287.048 184.441 287.048 C 186.834 287.048 188.774 285.108 188.774 282.714 C 188.774 280.32 186.834 278.381 184.441 278.381 C 182.048 278.381 180.108 280.32 180.108 282.714 Z M 178.566 273.464 C 178.566 275.558 180.263 277.256 182.358 277.256 C 184.453 277.256 186.15 275.558 186.15 273.464 C 186.15 271.37 184.452 269.672 182.358 269.672 C 180.264 269.672 178.566 271.369 178.566 273.464 Z M 177.211 301.782 C 178.742 301.782 179.982 300.541 179.982 299.011 C 179.982 297.481 178.742 296.239 177.211 296.239 C 175.68 296.239 174.44 297.48 174.44 299.01 C 174.44 300.54 175.68 301.782 177.211 301.782 Z M 186.108 292.256 C 186.108 290.161 184.41 288.464 182.316 288.464 C 180.222 288.464 178.524 290.161 178.524 292.256 C 178.524 294.35 180.221 296.048 182.316 296.048 C 184.411 296.048 186.108 294.35 186.108 292.256 Z M 173.483 302.761 C 173.483 301.783 172.691 300.99 171.712 300.99 C 170.733 300.99 169.941 301.784 169.941 302.761 C 169.941 303.738 170.733 304.532 171.712 304.532 C 172.69 304.532 173.483 303.738 173.483 302.761 Z M 167.279 302.634 C 166.513 302.634 165.893 303.255 165.893 304.021 C 165.893 304.787 166.514 305.408 167.279 305.408 C 168.045 305.408 168.665 304.787 168.665 304.021 C 168.665 303.255 168.045 302.634 167.279 302.634 Z M 177.399 269.595 C 178.93 269.595 180.17 268.354 180.17 266.824 C 180.17 265.294 178.929 264.053 177.399 264.053 C 175.869 264.053 174.628 265.294 174.628 266.824 C 174.628 268.354 175.868 269.595 177.399 269.595 Z M 171.649 264.845 C 172.628 264.845 173.42 264.051 173.42 263.074 C 173.42 262.097 172.628 261.303 171.649 261.303 C 170.67 261.303 169.878 262.097 169.878 263.074 C 169.878 264.051 170.67 264.845 171.649 264.845 Z M 167.279 262.657 C 168.045 262.657 168.665 262.036 168.665 261.27 C 168.665 260.504 168.045 259.883 167.279 259.883 C 166.513 259.883 165.893 260.504 165.893 261.27 C 165.893 262.036 166.514 262.657 167.279 262.657 Z M 156.299 269.748 C 158.692 269.766 160.647 267.84 160.664 265.447 C 160.682 263.054 158.756 261.099 156.363 261.081 C 153.969 261.063 152.015 262.988 151.998 265.382 C 151.98 267.776 153.905 269.73 156.299 269.748 Z M 147.038 271.221 C 149.132 271.237 150.843 269.552 150.859 267.457 C 150.874 265.363 149.189 263.653 147.095 263.637 C 145 263.621 143.29 265.306 143.275 267.401 C 143.259 269.495 144.943 271.205 147.038 271.221 Z M 172.553 275.536 C 174.083 275.547 175.334 274.317 175.345 272.786 C 175.356 271.255 174.125 270.006 172.594 269.994 C 171.064 269.982 169.814 271.214 169.802 272.744 C 169.791 274.276 171.024 275.525 172.553 275.536 Z M 165.829 271.402 C 167.922 271.418 169.633 269.733 169.649 267.639 C 169.665 265.544 167.979 263.834 165.885 263.819 C 163.79 263.803 162.08 265.489 162.065 267.583 C 162.049 269.676 163.734 271.386 165.829 271.402 Z M 176.296 276.522 C 175.318 276.515 174.519 277.301 174.511 278.28 C 174.504 279.259 175.291 280.057 176.269 280.064 C 177.246 280.071 178.046 279.285 178.054 278.306 C 178.062 277.327 177.274 276.529 176.296 276.522 Z M 176.123 282.724 C 176.118 283.49 176.734 284.115 177.499 284.12 C 178.264 284.125 178.89 283.51 178.896 282.744 C 178.901 281.978 178.285 281.353 177.519 281.347 C 176.754 281.342 176.129 281.957 176.123 282.724 Z M 140.368 275.11 C 141.898 275.121 143.149 273.89 143.16 272.36 C 143.172 270.83 141.939 269.58 140.409 269.568 C 138.879 269.557 137.628 270.788 137.617 272.319 C 137.606 273.85 138.838 275.098 140.368 275.11 Z M 136.583 279.832 C 137.561 279.839 138.36 279.053 138.368 278.074 C 138.375 277.095 137.587 276.296 136.609 276.289 C 135.632 276.282 134.832 277.069 134.824 278.047 C 134.817 279.026 135.606 279.824 136.583 279.832 Z M 136.148 282.427 C 136.154 281.66 135.538 281.036 134.772 281.031 C 134.007 281.025 133.381 281.641 133.375 282.406 C 133.37 283.173 133.986 283.797 134.752 283.802 C 135.516 283.809 136.142 283.193 136.148 282.427 Z M 143.183 293.761 C 143.152 291.368 141.189 289.452 138.795 289.482 C 136.402 289.511 134.486 291.476 134.516 293.87 C 134.546 296.264 136.51 298.178 138.903 298.148 C 141.297 298.118 143.212 296.154 143.183 293.761 Z M 144.84 302.991 C 144.814 300.897 143.094 299.22 141.001 299.245 C 138.907 299.272 137.231 300.991 137.256 303.086 C 137.283 305.18 139.001 306.857 141.096 306.829 C 143.189 306.804 144.866 305.085 144.84 302.991 Z M 148.647 277.395 C 148.627 275.865 147.373 274.639 145.841 274.658 C 144.31 274.678 143.086 275.933 143.105 277.464 C 143.124 278.993 144.38 280.22 145.91 280.201 C 147.441 280.182 148.665 278.924 148.647 277.395 Z M 140.808 280.456 C 138.713 280.481 137.037 282.201 137.063 284.294 C 137.089 286.39 138.809 288.065 140.902 288.038 C 142.996 288.013 144.672 286.295 144.646 284.2 C 144.621 282.107 142.902 280.43 140.808 280.456 Z M 149.557 273.633 C 149.569 274.611 150.371 275.395 151.351 275.382 C 152.329 275.37 153.111 274.567 153.099 273.589 C 153.087 272.612 152.285 271.828 151.306 271.84 C 150.327 271.851 149.545 272.655 149.557 273.633 Z M 154.358 272.313 C 154.368 273.079 154.996 273.692 155.761 273.683 C 156.527 273.673 157.14 273.044 157.131 272.279 C 157.121 271.513 156.492 270.901 155.727 270.909 C 154.96 270.918 154.348 271.547 154.358 272.313 Z M 146.055 306.845 C 144.525 306.865 143.299 308.12 143.318 309.652 C 143.337 311.181 144.593 312.408 146.124 312.387 C 147.654 312.37 148.879 311.113 148.86 309.581 C 148.841 308.052 147.585 306.826 146.055 306.845 Z M 151.864 311.523 C 150.885 311.537 150.102 312.339 150.114 313.318 C 150.126 314.296 150.93 315.078 151.907 315.067 C 152.886 315.053 153.669 314.251 153.656 313.274 C 153.645 312.295 152.843 311.511 151.864 311.523 Z M 156.26 313.656 C 155.493 313.665 154.882 314.293 154.89 315.06 C 154.9 315.824 155.527 316.439 156.293 316.427 C 157.06 316.419 157.671 315.79 157.662 315.023 C 157.654 314.259 157.026 313.646 156.26 313.656 Z M 167.237 306.566 C 164.844 306.545 162.886 308.464 162.863 310.859 C 162.84 313.251 164.761 315.21 167.155 315.233 C 169.548 315.256 171.506 313.335 171.53 310.942 C 171.552 308.547 169.631 306.589 167.237 306.566 Z M 176.503 305.112 C 174.409 305.092 172.695 306.774 172.674 308.868 C 172.654 310.962 174.336 312.676 176.431 312.696 C 178.525 312.716 180.239 311.034 180.258 308.94 C 180.278 306.847 178.597 305.132 176.503 305.112 Z M 150.996 300.743 C 149.466 300.728 148.212 301.956 148.198 303.487 C 148.184 305.018 149.412 306.27 150.943 306.284 C 152.472 306.3 153.726 305.071 153.742 303.54 C 153.756 302.01 152.526 300.758 150.996 300.743 Z M 157.712 304.892 C 155.618 304.871 153.904 306.552 153.884 308.647 C 153.863 310.742 155.546 312.456 157.639 312.475 C 159.734 312.496 161.448 310.813 161.467 308.72 C 161.487 306.626 159.807 304.911 157.712 304.892 Z M 147.255 299.749 C 148.233 299.759 149.034 298.974 149.043 297.994 C 149.052 297.016 148.266 296.216 147.289 296.207 C 146.312 296.197 145.51 296.982 145.5 297.961 C 145.491 298.941 146.278 299.739 147.255 299.749 Z M 146.042 294.921 C 146.807 294.929 147.435 294.314 147.442 293.548 C 147.448 292.782 146.834 292.155 146.068 292.148 C 145.302 292.141 144.676 292.757 144.668 293.523 C 144.66 294.288 145.276 294.913 146.042 294.921 Z M 183.179 301.239 C 181.65 301.223 180.397 302.452 180.382 303.983 C 180.368 305.512 181.596 306.766 183.128 306.78 C 184.657 306.796 185.911 305.566 185.925 304.036 C 185.941 302.505 184.711 301.253 183.179 301.239 Z M 186.977 296.525 C 185.998 296.515 185.197 297.3 185.187 298.279 C 185.179 299.258 185.964 300.058 186.943 300.068 C 187.921 300.078 188.721 299.291 188.731 298.314 C 188.738 297.333 187.953 296.534 186.977 296.525 Z M 188.815 292.558 C 188.05 292.55 187.423 293.165 187.417 293.93 C 187.409 294.697 188.023 295.322 188.791 295.33 C 189.555 295.337 190.184 294.724 190.188 293.957 C 190.197 293.191 189.583 292.566 188.815 292.558 Z" style="stroke-width: 1;"/></g></svg>