<!-- <svg xmlns="http://www.w3.org/2000/svg" fill="none" viewBox="0 0 128 128">
    <path d="M50.4 78.5a75.1 75.1 0 0 0-28.5 6.9l24.2-65.7c.7-2 1.9-3.2 3.4-3.2h29c1.5 0 2.7 1.2 3.4 3.2l24.2 65.7s-11.6-7-28.5-7L67 45.5c-.4-1.7-1.6-2.8-2.9-2.8-1.3 0-2.5 1.1-2.9 2.7L50.4 78.5Zm-1.1 28.2Zm-4.2-20.2c-2 6.6-.6 15.8 4.2 20.2a17.5 17.5 0 0 1 .2-.7 5.5 5.5 0 0 1 5.7-4.5c2.8.1 4.3 1.5 4.7 4.7.2 1.1.2 2.3.2 3.5v.4c0 2.7.7 5.2 2.2 7.4a13 13 0 0 0 5.7 4.9v-.3l-.2-.3c-1.8-5.6-.5-9.5 4.4-12.8l1.5-1a73 73 0 0 0 3.2-2.2 16 16 0 0 0 6.8-11.4c.3-2 .1-4-.6-6l-.8.6-1.6 1a37 37 0 0 1-22.4 2.7c-5-.7-9.7-2-13.2-6.2Z" />
    <style>
        path { fill: #000; }
        @media (prefers-color-scheme: dark) {
            path { fill: #FFF; }
        }
    </style>
</svg> -->
<?xml version="1.0" encoding="UTF-8"?>
<svg version="1.1" xmlns="http://www.w3.org/2000/svg" width="180" height="180">
<path d="M0 0 C2.2734375 1.0234375 2.2734375 1.0234375 4 2 C4 2.66 4 3.32 4 4 C4.66 4 5.32 4 6 4 C8.94708039 8.5974454 9.20580936 11.6358489 8.51953125 16.8515625 C7.6815161 20.3170387 6.68398696 22.45683389 3.875 24.6875 C-1.06373297 26.94213897 -5.08479524 27.69978635 -10.25 25.8125 C-14.07797019 23.28951964 -16.53187732 21.40436803 -18 17 C-18.39509723 11.76496164 -17.93380851 8.40071276 -15 4 C-10.35604133 -0.2016769 -6.03715949 -0.94399221 0 0 Z " fill="#1F4CA1" transform="translate(159,62)"/>
<path d="M0 0 C4.03559479 2.21782253 6.54031906 4.62095717 8 9 C8.39441267 14.22596788 7.90549127 17.59166842 5 22 C2.4375 23.8125 2.4375 23.8125 0 25 C-0.66 25.33 -1.32 25.66 -2 26 C-7.21839899 26.40141531 -10.65156028 25.9955918 -15 23 C-18.08284147 19.04763914 -19.35069771 16.46400715 -19.0625 11.4375 C-18.28761688 6.71555597 -16.38924498 4.30658047 -13 1 C-9.00247674 -0.99876163 -4.33428575 -0.64388289 0 0 Z " fill="#1F4DA2" transform="translate(31,94)"/>
<path d="M0 0 C3.74030185 1.60298651 4.73158465 2.59737698 7 6 C8.13175123 11.65875614 8.1556635 15.50305808 6 21 C3.81500794 23.75498999 1.29123805 25.8088701 -2.26953125 26.3359375 C-7.9950897 26.42388771 -11.65590623 26.13218676 -16 22 C-18.21183538 18.21847499 -19.01441828 15.82184208 -18.9375 11.4375 C-16.0444174 0.82953046 -10.01895778 -0.96815697 0 0 Z " fill="#1F4DA1" transform="translate(111,142)"/>
<path d="M0 0 C3.7474026 2.09854546 5.36392569 4.1099349 7 8 C7.63529958 12.05254261 7.90563196 16.1662824 6.0546875 19.9140625 C3.52263086 23.14681406 1.00304229 25.1811959 -3 26 C-7.61815604 26.05899104 -11.00505831 25.63506916 -14.9375 23.125 C-19.22372124 18.70889327 -19.48079279 15.65895996 -19.39453125 9.73828125 C-18.78187614 5.48609082 -17.1469121 3.84720619 -14 1 C-9.82437724 -1.08781138 -4.54816058 -0.44327867 0 0 Z " fill="#204DA1" transform="translate(81,14)"/>
<path d="M0 0 C3.64331077 1.61924923 6.20425519 3.40851039 8 7 C8.66298964 10.81765466 8.87514728 14.35736245 7.015625 17.84765625 C4.78286601 20.65238746 2.49384691 23.10158222 -1 24 C-6.65548986 23.82046064 -9.97354349 23.26330689 -14 19 C-16.25475922 15.310394 -16.26216554 12.09448866 -15.6171875 7.93359375 C-14.60001197 4.74687294 -12.54706149 3.05007388 -10 1 C-6.80657621 -0.59671189 -3.47454369 -0.37418163 0 0 Z " fill="#1E4BA2" transform="translate(35,68)"/>
<path d="M0 0 C3.37617753 2.17575885 5.78034129 4.11926774 7 8 C7.47584595 12.28261351 7.27767535 14.47440024 5.25 18.3125 C2.66815845 21.39636629 0.8110584 22.68718082 -3.1484375 23.37109375 C-7.34208921 23.49616757 -10.14781745 23.37572369 -13.5 20.6875 C-16.46420167 17.5009832 -16.93141841 15.9258515 -17.25 11.625 C-16.9747153 7.63337182 -16.55174336 6.04562917 -14 3 C-9.39372732 -0.74929171 -5.87202927 -1.73986052 0 0 Z " fill="#1E4CA2" transform="translate(137,138)"/>
<path d="M0 0 C3.64637922 1.83669472 6.2718399 4.10828511 7.7578125 7.96875 C8.39920218 11.51686312 8.06602241 13.79804911 6.9375 17.25 C4.61057224 20.55273617 2.59817122 22.1656382 -1 24 C-4.99979016 24.66663169 -6.61367041 24.21210252 -10.1875 22.25 C-14.38708663 18.89033069 -15.81957206 17.59807601 -16.4375 12.125 C-16.27773148 7.84320378 -14.75247662 5.30297194 -12 2 C-7.94400834 -0.70399444 -4.76139259 -0.88290723 0 0 Z " fill="#1F4BA1" transform="translate(83,137)"/>
<path d="M0 0 C3.22325545 1.91772636 5.51720416 4.18134618 7.4375 7.4375 C8.16657107 10.75882376 7.999384 12.7353456 7 16 C5.09604776 18.86258553 3.12818922 21.43590539 0 23 C-4.87353602 23.68229504 -8.13124331 23.50545844 -12.4375 21 C-15.47333914 17.44584687 -16.76360579 14.66423965 -17 10 C-16.125 6.5 -16.125 6.5 -15 4 C-14.34 4 -13.68 4 -13 4 C-13 3.34 -13 2.68 -13 2 C-8.24071676 -0.90200197 -5.40012337 -1.54289239 0 0 Z " fill="#1F4BA0" transform="translate(153,91)"/>
<path d="M0 0 C0.76183594 -0.00515625 1.52367187 -0.0103125 2.30859375 -0.015625 C4.85000492 0.28388273 6.4053992 0.88141924 8.5625 2.25 C11.36808513 6.04133125 12.95049153 8.6108249 12.5625 13.375 C11.84997389 17.15799944 10.3038029 19.5086971 7.5625 22.25 C3.53968767 24.26140616 -1.08534736 23.98454053 -5.4375 23.25 C-8.98619516 21.04132446 -10.94426926 18.27341115 -11.93359375 14.21484375 C-12.25515433 9.15757276 -10.59625584 6.04050701 -7.4375 2.25 C-4.32763793 0.17675862 -3.54641613 -0.02392186 0 0 Z " fill="#1F4DA1" transform="translate(31.4375,120.75)"/>
<path d="M0 0 C3.51578585 1.37574229 4.71719707 2.59464913 6.875 5.6875 C8.27926451 9.82227883 8.28480957 12.83721699 7 17 C5.17890734 19.76101146 3.95798903 21.52100548 1 23 C-3.8596768 23.52467307 -7.74929263 23.75563571 -12 21.1875 C-15.43319713 17.43244064 -16.39487764 15.11805419 -16.25390625 9.99609375 C-15.77095317 6.19933954 -13.85367388 3.95217471 -11.375 1.1875 C-7.64480993 -0.67759504 -4.08572861 -0.52624769 0 0 Z " fill="#204DA1" transform="translate(106,21)"/>
<path d="M0 0 C4.15200287 0.03231131 5.369362 0.09534759 8.8125 2.625 C9.451875 3.5325 10.09125 4.44 10.75 5.375 C11.20375 5.99375 11.6575 6.6125 12.125 7.25 C13.10486729 10.5815488 12.57105642 13.03212743 11.75 16.375 C9.57424115 19.75117753 7.63073226 22.15534129 3.75 23.375 C-0.57135899 23.855151 -2.7168367 23.66673086 -6.5625 21.5625 C-9.36346485 19.28264489 -11.03548988 17.70722077 -11.62109375 14.0703125 C-11.80199094 7.06852708 -11.80199094 7.06852708 -8.8125 3.3125 C-7.966875 2.673125 -7.12125 2.03375 -6.25 1.375 C-4.53055699 -0.34444301 -2.34584777 0.08154016 0 0 Z " fill="#1F4CA1" transform="translate(148.25,37.625)"/>
<path d="M0 0 C2.32320487 2.25487531 3.07073445 3.13200549 3.2578125 6.33984375 C3.25523438 7.21769531 3.25265625 8.09554688 3.25 9 C3.25386719 10.31291016 3.25386719 10.31291016 3.2578125 11.65234375 C3.125 14.0625 3.125 14.0625 2.125 17.0625 C1.465 17.0625 0.805 17.0625 0.125 17.0625 C0.125 17.7225 0.125 18.3825 0.125 19.0625 C-3.59582474 21.54304982 -7.55833489 21.7349036 -11.875 21.0625 C-15.25283054 19.37358473 -17.23862481 18.03089703 -19.3125 14.875 C-20.13467002 10.76414991 -20.01797682 7.10687951 -18.875 3.0625 C-16.7529705 0.30959686 -15.14297579 -1.34577797 -12 -2.8125 C-7.33680945 -3.08680533 -3.90714591 -2.63307659 0 0 Z " fill="#1F4CA1" transform="translate(56.875,22.9375)"/>
<path d="M0 0 C3.2351208 2.27332813 3.90823677 3.63294707 4.875 7.5 C4.99677465 10.90969032 4.99358484 12.30866047 3 15 C-1.03559625 17.6903975 -4.26348721 17.65832398 -9 17 C-11.5625 15.5625 -11.5625 15.5625 -13 13 C-13.59693509 9.87183056 -13.68220578 7.11865502 -13 4 C-8.77566408 -0.44666939 -5.90431881 -1.53512289 0 0 Z " fill="#1F4DA0" transform="translate(155,127)"/>
<path d="M0 0 C2.875 1.3125 2.875 1.3125 5 4 C5.64471615 7.74495991 5.8234747 11.280166 5 15 C2.21100903 17.63885896 -0.14304604 18.81633553 -4 19 C-7.10437024 17.84346991 -9.2750583 16.85101852 -11.4375 14.3125 C-12.31232518 10.7159965 -12.11439979 7.53134479 -11 4 C-7.66727858 0.19117552 -4.99586349 -0.83264391 0 0 Z " fill="#1E4A9F" transform="translate(49,142)"/>
<path d="M0 0 C2.91352832 2.12608823 3.84290273 3.47260202 4.875 6.9375 C5.01169953 10.28663841 4.62033144 12.0834034 3 15 C-0.7135143 17.4756762 -3.69667338 17.64466177 -8 17 C-11 15.5625 -11 15.5625 -13 13 C-13.64728013 9.87816218 -13.63162797 7.12368743 -13 4 C-9.40819555 -0.95421303 -5.74837114 -1.52507806 0 0 Z " fill="#1E4CA2" transform="translate(139,22)"/>
<path d="M0 0 C2.3515625 0.484375 2.3515625 0.484375 4.9765625 2.609375 C6.59243608 5.98801976 6.96779445 7.78698332 6.3515625 11.484375 C4.55162476 14.18428162 3.2677895 16.0262615 0.3515625 17.484375 C-2.94111085 17.77705708 -5.3176946 17.59462263 -8.4609375 16.546875 C-11.38374573 13.79108438 -11.6355554 11.64968257 -11.828125 7.71484375 C-11.6484375 5.484375 -11.6484375 5.484375 -10.3359375 2.421875 C-6.80998261 -0.12009248 -4.27689282 -0.22709165 0 0 Z " fill="#1F4DA0" transform="translate(62.6484375,125.515625)"/>
<path d="M0 0 C2.07845732 1.64114597 2.89784976 2.50029205 3.43359375 5.12109375 C3.43981169 8.8083306 3.39189596 11.30140286 1.5625 14.5625 C-2.2614208 16.7076263 -5.71929144 16.77115706 -10 16 C-13.0904894 13.99118189 -13.79683153 12.58410936 -15 9.125 C-15 4.90863791 -13.72833791 3.15912811 -11 0 C-6.86351215 -2.61251864 -4.34838894 -1.98513408 0 0 Z " fill="#1F4CA1" transform="translate(51,53)"/>
<path d="M0 0 C3.2351208 2.27332813 3.90823677 3.63294707 4.875 7.5 C5.04878049 12.36585366 5.04878049 12.36585366 3 15 C-0.22794238 17.30567313 -3.11566819 17.32369432 -7 17 C-10.34265205 15.79293121 -10.94704566 15.07943151 -13 12 C-13.46362482 7.82737663 -13.4494094 5.71285629 -11.1875 2.125 C-7.50859763 -1.44879087 -4.76887416 -1.26521151 0 0 Z " fill="#1F4CA0" transform="translate(125,39)"/>
<path d="M0 0 C2.89357127 2.59679473 3.86089908 4.16539447 4.5 8 C3.84128733 11.95227601 3.13922618 13.45872167 0 16 C-4.61596004 16.88178639 -8.54697416 16.86489633 -12.625 14.4375 C-14.55058839 11.02395694 -14.54218777 8.86308787 -14 5 C-10.20713399 -1.01627021 -6.78649926 -1.66685947 0 0 Z " fill="#204C9F" transform="translate(35,38)"/>
<path d="M0 0 C2.4375 1 2.4375 1 4 3 C5.03332905 6.60517023 5.38609138 9.77737729 4.25 13.375 C3 15 3 15 0 17 C-6.95634629 17.55209098 -6.95634629 17.55209098 -10.22265625 15.82421875 C-12.62076846 13.36285962 -12.53646653 11.89138762 -12.5 8.5 C-12.51546875 7.06140625 -12.51546875 7.06140625 -12.53125 5.59375 C-12 3 -12 3 -10.21875 1.1796875 C-6.76358923 -0.65738741 -3.81418907 -0.54824073 0 0 Z " fill="#1F4DA1" transform="translate(138,113)"/>
<path d="M0 0 C1.7325 0.1546875 1.7325 0.1546875 3.5 0.3125 C5.81282587 3.78173881 5.92478586 5.23455575 5.5 9.3125 C4.375 11.1875 4.375 11.1875 2.5 12.3125 C-0.5 12.75 -0.5 12.75 -3.5 12.3125 C-5.4375 10.6875 -5.4375 10.6875 -6.5 8.3125 C-6.18311055 3.03100922 -5.65446701 0.50486313 0 0 Z " fill="#1E4AA2" transform="translate(118.5,13.6875)"/>
<path d="M0 0 C3.5625 0.375 3.5625 0.375 5.5625 2 C6.91448496 5.21096428 6.56701167 7.07446166 5.5625 10.375 C2.31616476 12.5392235 1.31948557 12.75069856 -2.4375 12.375 C-3.4275 11.715 -4.4175 11.055 -5.4375 10.375 C-5.80078125 8.5 -5.80078125 8.5 -5.75 6.375 C-5.74419922 5.323125 -5.74419922 5.323125 -5.73828125 4.25 C-5.14681817 0.56295742 -3.48722365 0.3804244 0 0 Z " fill="#1D4DA0" transform="translate(62.4375,155.625)"/>
<path d="M0 0 C3.5 0.25 3.5 0.25 5.5 2.25 C6.05021834 8.30240175 6.05021834 8.30240175 4.375 11.1875 C1.65050101 12.73138276 -0.42891945 12.5767107 -3.5 12.25 C-5.5 10.25 -5.5 10.25 -5.765625 8.375 C-5.76046875 7.67375 -5.7553125 6.9725 -5.75 6.25 C-5.75515625 5.54875 -5.7603125 4.8475 -5.765625 4.125 C-5.23295792 0.36499707 -3.52956633 0.25211188 0 0 Z " fill="#1E4E9F" transform="translate(131.5,56.75)"/>
<path d="M0 0 C1.7015625 0.2475 1.7015625 0.2475 3.4375 0.5 C5.75032587 3.96923881 5.86228586 5.42205575 5.4375 9.5 C4.375 11.4375 4.375 11.4375 2.4375 12.5 C-1.25 12.1875 -1.25 12.1875 -4.5625 11.5 C-6.09138746 8.03988627 -6.81919488 6.28719764 -5.625 2.625 C-3.5625 0.5 -3.5625 0.5 0 0 Z " fill="#1D4AA3" transform="translate(118.5625,125.5)"/>
<path d="M0 0 C2.375 0.875 2.375 0.875 4.375 3.875 C3.80896226 10.44103774 3.80896226 10.44103774 2.375 11.875 C-1 12.1875 -1 12.1875 -4.625 11.875 C-6.625 10.1875 -6.625 10.1875 -7.625 7.875 C-7.54696617 4.67561304 -7.06245759 3.34370456 -4.875 1 C-2.625 -0.125 -2.625 -0.125 0 0 Z " fill="#1F4CA2" transform="translate(50.625,112.125)"/>
<path d="M0 0 C3.29970692 0.04756334 3.83473679 0.09303002 6.3125 2.5 C7.125 5.375 7.125 5.375 6.125 8.625 C4.125 11.375 4.125 11.375 1.6875 12.4375 C-0.875 12.375 -0.875 12.375 -3.1875 11.4375 C-5.85500586 8.17721506 -5.2080616 5.50496383 -4.875 1.375 C-3.875 0.375 -3.875 0.375 0 0 Z " fill="#1D4AA5" transform="translate(18.875,56.625)"/>
<path d="M0 0 C0.66 0.33 1.32 0.66 2 1 C2.85056945 4.55692677 3.16909807 6.49270578 2 10 C-0.75 11.375 -0.75 11.375 -4 12 C-6.875 11 -6.875 11 -9 9 C-9.53544229 5.78734627 -9.56570175 3.94283625 -7.875 1.125 C-5.18282457 -0.49030526 -3.07846795 -0.26199727 0 0 Z " fill="#1F4CA1" transform="translate(64,44)"/>
<path d="M0 0 C3.5625 0.375 3.5625 0.375 5.5625 2.0625 C6.82576211 4.98379364 6.58266252 6.39298647 5.5625 9.375 C3.5625 11.375 3.5625 11.375 0.0625 11.625 C-3.4375 11.375 -3.4375 11.375 -5.4375 9.375 C-5.6875 5.875 -5.6875 5.875 -5.4375 2.375 C-3.4375 0.375 -3.4375 0.375 0 0 Z " fill="#204DA1" transform="translate(161.4375,113.625)"/>
<path d="M0 0 C0.928125 0.20625 1.85625 0.4125 2.8125 0.625 C3.4375 3.4375 3.4375 3.4375 3.8125 6.625 C2.8225 8.11 2.8225 8.11 1.8125 9.625 C-1.1875 9.9375 -1.1875 9.9375 -4.1875 9.625 C-6.1875 7.625 -6.1875 7.625 -6.5 4.625 C-6.396875 3.635 -6.29375 2.645 -6.1875 1.625 C-3.1875 -0.375 -3.1875 -0.375 0 0 Z " fill="#1C47A6" transform="translate(47.1875,101.375)"/>
<path d="M0 0 C2.3125 1.25 2.3125 1.25 3.3125 2.25 C3.6107732 5.08359542 3.66852594 6.68785378 2.125 9.125 C0.3125 10.25 0.3125 10.25 -2.25 10.0625 C-4.6875 9.25 -4.6875 9.25 -6.6875 7.25 C-7.0625 4.8125 -7.0625 4.8125 -6.6875 2.25 C-4.33222347 -0.45420638 -3.50969299 -0.97944921 0 0 Z " fill="#1E499D" transform="translate(15.6875,69.75)"/>
<path d="M0 0 C3 0.25 3 0.25 5 2.25 C4.625 5.875 4.625 5.875 4 9.25 C0.71303767 10.04953138 -0.71023192 10.34658936 -4 9.25 C-4.625 5.875 -4.625 5.875 -5 2.25 C-3 0.25 -3 0.25 0 0 Z " fill="#1E4CA0" transform="translate(106,9.75)"/>
<path d="M0 0 C2.3125 1.25 2.3125 1.25 3.3125 2.25 C3.5 4.6875 3.5 4.6875 3.3125 7.25 C1.3125 9.25 1.3125 9.25 -1.6875 9.5 C-4.6875 9.25 -4.6875 9.25 -6.6875 7.25 C-7.0625 4.8125 -7.0625 4.8125 -6.6875 2.25 C-4.33222347 -0.45420638 -3.50969299 -0.97944921 0 0 Z " fill="#1F4C9D" transform="translate(107.6875,130.75)"/>
<path d="M0 0 C3.375 -0.125 3.375 -0.125 7 0 C9 2 9 2 9.25 4.5 C9 7 9 7 7 9 C3.375 9.125 3.375 9.125 0 9 C-1.125 2.25 -1.125 2.25 0 0 Z " fill="#204A9C" transform="translate(131,71)"/>
<path d="M0 0 C2 2 2 2 2.3125 5 C2.1578125 6.485 2.1578125 6.485 2 8 C-1 10 -1 10 -3.5625 9.9375 C-6 9 -6 9 -7.375 6.625 C-8 4 -8 4 -7 1 C-4.48718205 -0.25640898 -2.78302919 -0.20872719 0 0 Z " fill="#2049A0" transform="translate(76,41)"/>
<path d="M0 0 C3 0.25 3 0.25 5 2.25 C5.25 4.75 5.25 4.75 5 7.25 C3 9.25 3 9.25 -0.625 9.375 C-1.73875 9.33375 -2.8525 9.2925 -4 9.25 C-4.625 5.875 -4.625 5.875 -5 2.25 C-3 0.25 -3 0.25 0 0 Z " fill="#1D4E9F" transform="translate(75,161.75)"/>
<path d="M0 0 C2.5 0.25 2.5 0.25 4.5 2.25 C4.625 5.875 4.625 5.875 4.5 9.25 C1.125 9.875 1.125 9.875 -2.5 10.25 C-4.5 8.25 -4.5 8.25 -4.75 5.25 C-4.43608753 1.48305032 -3.83691092 0.38369109 0 0 Z " fill="#1E499F" transform="translate(166.5,101.75)"/>
</svg>

